<?xml version="1.0" encoding="UTF-8"?>
<svg id="Layer_1" data-name="Layer 1" xmlns="http://www.w3.org/2000/svg" viewBox="0 0 250.56 162.77">
  <defs>
    <style>
      .cls-1 {
        fill: #efa1c4;
      }

      .cls-1, .cls-2, .cls-3 {
        stroke-width: 0px;
      }

      .cls-2 {
        fill: #abdbe3;
      }

      .cls-3 {
        fill: #bfe5b3;
      }
    </style>
  </defs>
  <path class="cls-3" d="M26.35,58.66H5.28c-2.3,0-3.02-.86-3.02-2.74V19.54c0-1.15.48-1.87,1.78-1.87h7.87c1.3,0,1.78.72,1.78,1.87v30.29h12.67c1.15,0,1.87.67,1.87,1.58v5.66c0,.91-.72,1.58-1.87,1.58Z"/>
  <path class="cls-1" d="M48.91,42.96c0-6.53-1.2-7.34-3.17-7.34s-3.17.82-3.17,7.34,1.2,7.34,3.17,7.34,3.17-.82,3.17-7.34ZM60.29,42.96c0,9.65-3.89,16.22-14.54,16.22s-14.54-6.58-14.54-16.22,3.89-16.22,14.54-16.22,14.54,6.58,14.54,16.22Z"/>
  <path class="cls-2" d="M81.17,38.64c0-2.21-.82-2.88-2.26-2.88h-2.45c-.96,0-1.54.43-1.54,1.68v19.34c0,1.15-.48,1.87-1.78,1.87h-7.78c-1.3,0-1.78-.72-1.78-1.87v-25.63c0-1.54.77-3.12,3.22-3.31l15.12-1.06c7.15-.43,10.51,3.55,10.51,11.23v18.77c0,1.15-.48,1.87-1.78,1.87h-7.73c-1.3,0-1.78-.72-1.78-1.87v-18.14Z"/>
  <path class="cls-3" d="M110.25,35.71c-2.88,0-2.88.91-2.88,4.22v2.54c0,3.02.19,4.37,2.88,4.13.96-.1,1.97-.24,2.93-.53v-9.17c0-.86-.43-1.2-1.06-1.2h-1.87ZM108.19,55.49c-7.92,0-12.14-3.22-12.14-14.02,0-8.11,1.63-15.02,11.04-14.74l15.65.48c1.3.05,1.78.72,1.78,1.87v27.89c0,7.58-2.98,10.22-9.6,10.22h-14.54c-1.15,0-1.87-.48-1.87-1.78v-4.9c0-1.3.72-1.73,1.87-1.78l11.38-.48c1.2-.05,1.44-.34,1.44-1.58v-2.16c-1.58.53-3.26.96-4.99.96Z"/>
  <path class="cls-3" d="M166.13,58.66h-21.07c-2.3,0-3.02-.86-3.02-2.74V19.54c0-1.15.48-1.87,1.78-1.87h7.87c1.3,0,1.78.72,1.78,1.87v30.29h12.67c1.15,0,1.87.67,1.87,1.58v5.66c0,.91-.72,1.58-1.87,1.58Z"/>
  <path class="cls-1" d="M172.17,29.47c0-1.15.48-1.87,1.78-1.87h7.82c1.3,0,1.78.72,1.78,1.87v27.31c0,1.15-.48,1.87-1.78,1.87h-7.82c-1.3,0-1.78-.72-1.78-1.87v-27.31ZM172.17,17.42c0-1.15.48-1.87,1.78-1.87h7.82c1.3,0,1.78.72,1.78,1.87v5.9c0,1.15-.48,1.87-1.78,1.87h-7.82c-1.3,0-1.78-.72-1.78-1.87v-5.9Z"/>
  <path class="cls-3" d="M208.65,56.5c-.43,1.39-1.3,2.16-2.69,2.16h-7.3c-1.39,0-2.02-.77-2.69-2.06l-8.98-27.12c-.53-1.06.29-2.26,1.49-2.26h7.82c1.1,0,1.58.62,2.11,1.73l3.55,15.74h.43l3.55-15.74c.29-1.2,1.01-1.73,2.11-1.73h7.87c1.2,0,2.02,1.2,1.49,2.26l-8.78,27.02Z"/>
  <path class="cls-2" d="M237.93,39.6v-2.35c0-1.39-1.15-2.11-3.12-2.11s-3.12.72-3.12,2.11v2.35h6.24ZM246.43,49.78c1.15,0,1.87.48,1.87,1.78v4.75c0,1.3-.72,1.82-1.87,1.87l-8.06.48h-4.99c-8.11,0-13.01-1.92-13.01-10.51v-11.57c0-7.06,5.04-10.32,14.21-10.32,10.03,0,14.64,3.74,14.21,10.8l-.38,6.38c-.14,2.64-1.92,3.7-4.13,3.6l-12.58-.43v3.17h14.74Z"/>
  <path class="cls-1" d="M29.04,107.66c1.15,0,1.87.67,1.87,1.58v6.72c0,.91-.72,1.58-1.87,1.58h-6.96v29.23c0,1.15-.48,1.87-1.78,1.87h-7.73c-1.3,0-1.78-.72-1.78-1.87v-29.23H3.84c-1.15,0-1.87-.67-1.87-1.58v-6.72c0-.91.72-1.58,1.87-1.58h25.2Z"/>
  <path class="cls-2" d="M46.42,146.78c0,1.15-.48,1.87-1.78,1.87h-7.78c-1.3,0-1.78-.72-1.78-1.87v-38.69c0-1.15.48-1.87,1.78-1.87h7.78c1.3,0,1.78.72,1.78,1.87v9.65l7.54-.91c5.14-.58,9.07.96,9.07,8.59v21.36c0,1.15-.48,1.87-1.78,1.87h-7.73c-1.3,0-1.78-.72-1.78-1.87v-18.19c0-2.21-.43-2.88-2.26-2.88h-1.54c-.96,0-1.54.43-1.54,1.68v19.39Z"/>
  <path class="cls-2" d="M84.67,129.6v-2.35c0-1.39-1.15-2.11-3.12-2.11s-3.12.72-3.12,2.11v2.35h6.24ZM93.17,139.78c1.15,0,1.87.48,1.87,1.78v4.75c0,1.3-.72,1.82-1.87,1.87l-8.06.48h-4.99c-8.11,0-13.01-1.92-13.01-10.51v-11.57c0-7.06,5.04-10.32,14.21-10.32,10.03,0,14.64,3.74,14.21,10.8l-.38,6.38c-.14,2.64-1.92,3.7-4.13,3.6l-12.58-.43v3.17h14.74Z"/>
  <path class="cls-1" d="M136.75,146.78c0,1.15-.48,1.87-1.78,1.87h-7.73c-1.3,0-1.78-.72-1.78-1.87v-37.25c0-1.15.48-1.87,1.78-1.87h7.73c1.3,0,1.78.72,1.78,1.87v11.28c2.5-2.83,5.18-7.39,7.1-11.28.82-1.68,1.73-1.87,2.5-1.87h7.63c2.5,0,2.83,1.34,2.11,3.02-1.82,4.27-5.47,10.08-9.36,15.17,4.42,6.53,8.3,13.15,12.24,19.92.58,1.15.48,2.88-1.34,2.88h-9.07c-1.39,0-2.26-.29-2.83-1.39-2.26-4.08-4.66-8.16-7.2-12.19-.62.53-1.25,1.01-1.78,1.39v10.32Z"/>
  <path class="cls-1" d="M174.04,146.78c0,1.15-.48,1.87-1.78,1.87h-7.73c-1.3,0-1.78-.72-1.78-1.87v-37.25c0-1.15.48-1.87,1.78-1.87h7.73c1.3,0,1.78.72,1.78,1.87v11.28c2.5-2.83,5.18-7.39,7.1-11.28.82-1.68,1.73-1.87,2.5-1.87h7.63c2.5,0,2.83,1.34,2.11,3.02-1.82,4.27-5.47,10.08-9.36,15.17,4.42,6.53,8.3,13.15,12.24,19.92.58,1.15.48,2.88-1.34,2.88h-9.07c-1.39,0-2.26-.29-2.83-1.39-2.26-4.08-4.66-8.16-7.2-12.19-.62.53-1.25,1.01-1.78,1.39v10.32Z"/>
  <path class="cls-1" d="M227.9,107.66c1.25,0,2.02.58,2.21,1.97l2.26,27.7h.62l1.92-27.79c0-1.15.48-1.87,1.78-1.87h7.54c1.3,0,1.78.72,1.78,1.87l-4.8,36.38c-.24,1.87-.72,2.74-3.02,2.74h-9.6c-2.16,0-3.26-.96-3.55-3.02l-2.3-23.57h-.67l-2.3,23.57c-.29,2.06-1.39,3.02-3.55,3.02h-9.6c-2.3,0-2.78-.86-3.02-2.74l-4.8-36.38c0-1.15.48-1.87,1.78-1.87h7.54c1.3,0,1.78.72,1.78,1.87l1.92,27.79h.62l2.26-27.7c.19-1.39.96-1.97,2.21-1.97h11.04Z"/>
</svg>